<svg width="20" height="20" viewBox="0 0 20 20" fill="none" xmlns="http://www.w3.org/2000/svg">
<path d="M12.2422 18.7149C13.2578 18.5117 13.918 17.5235 13.7148 16.5078L13.625 16.0625C13.418 15.0196 13.0352 14.0274 12.5 13.125H18.125C19.1602 13.125 20 12.2852 20 11.25C20 10.5274 19.5898 9.89846 18.9883 9.58596C19.4141 9.24221 19.6875 8.71487 19.6875 8.12502C19.6875 7.21096 19.0312 6.44924 18.168 6.28518C18.3398 6.00002 18.4375 5.66799 18.4375 5.31252C18.4375 4.48049 17.8945 3.77346 17.1445 3.53127C17.1719 3.40237 17.1875 3.26565 17.1875 3.12502C17.1875 2.08987 16.3477 1.25002 15.3125 1.25002H11.5039C10.7617 1.25002 10.0391 1.46877 9.42188 1.87893L7.91797 2.88284C6.875 3.57815 6.25 4.75002 6.25 6.00393V7.50002V9.37502V10.3477C6.25 11.4883 6.76953 12.5625 7.65625 13.2774L7.94531 13.5078C8.98047 14.336 9.6875 15.5 9.94531 16.7969L10.0352 17.2422C10.2383 18.2578 11.2266 18.918 12.2422 18.7149ZM1.25 12.5H3.75C4.44141 12.5 5 11.9414 5 11.25V2.50002C5 1.80862 4.44141 1.25002 3.75 1.25002H1.25C0.558594 1.25002 0 1.80862 0 2.50002V11.25C0 11.9414 0.558594 12.5 1.25 12.5Z" fill="white"/>
</svg>
