<svg width="12" height="17" viewBox="0 0 12 17" fill="none" xmlns="http://www.w3.org/2000/svg">
<path d="M6 0.75C3.477 0.75 1.5 2.727 1.5 5.25V6C0.675 6 0 6.675 0 7.5V15C0 15.825 0.675 16.5 1.5 16.5H10.5C11.325 16.5 12 15.825 12 15V7.5C12 6.675 11.325 6 10.5 6V5.25C10.5 2.727 8.523 0.75 6 0.75ZM6 2.25C7.68225 2.25 9 3.56775 9 5.25V6H3V5.25C3 3.56775 4.31775 2.25 6 2.25ZM1.5 7.5H10.5V15H1.5V7.5ZM3 10.5C2.80109 10.5 2.61032 10.579 2.46967 10.7197C2.32902 10.8603 2.25 11.0511 2.25 11.25C2.25 11.4489 2.32902 11.6397 2.46967 11.7803C2.61032 11.921 2.80109 12 3 12C3.19891 12 3.38968 11.921 3.53033 11.7803C3.67098 11.6397 3.75 11.4489 3.75 11.25C3.75 11.0511 3.67098 10.8603 3.53033 10.7197C3.38968 10.579 3.19891 10.5 3 10.5ZM6 10.5C5.80109 10.5 5.61032 10.579 5.46967 10.7197C5.32902 10.8603 5.25 11.0511 5.25 11.25C5.25 11.4489 5.32902 11.6397 5.46967 11.7803C5.61032 11.921 5.80109 12 6 12C6.19891 12 6.38968 11.921 6.53033 11.7803C6.67098 11.6397 6.75 11.4489 6.75 11.25C6.75 11.0511 6.67098 10.8603 6.53033 10.7197C6.38968 10.579 6.19891 10.5 6 10.5ZM9 10.5C8.80109 10.5 8.61032 10.579 8.46967 10.7197C8.32902 10.8603 8.25 11.0511 8.25 11.25C8.25 11.4489 8.32902 11.6397 8.46967 11.7803C8.61032 11.921 8.80109 12 9 12C9.19891 12 9.38968 11.921 9.53033 11.7803C9.67098 11.6397 9.75 11.4489 9.75 11.25C9.75 11.0511 9.67098 10.8603 9.53033 10.7197C9.38968 10.579 9.19891 10.5 9 10.5Z" fill="white" fill-opacity="0.5"/>
</svg>
