<svg width="26" height="26" viewBox="0 0 26 26" fill="none" xmlns="http://www.w3.org/2000/svg">
<path d="M13.6256 0.68401C11.8025 -0.0341148 9.76563 -0.186615 7.8525 0.233385C5.92625 0.653385 4.1375 1.66776 2.77875 3.09464C1.45125 4.47651 0.533127 6.24713 0.178751 8.13088C-0.17375 9.97713 0.00562477 11.9221 0.70125 13.669C1.55187 15.8303 3.18188 17.6703 5.22188 18.7796C7.04563 19.7846 9.19062 20.1821 11.2544 19.9203C13.1006 19.6934 14.8737 18.9278 16.3119 17.7496C18.9687 20.4053 21.625 23.0615 24.2806 25.7178C24.76 25.239 25.2394 24.7596 25.7188 24.2803C23.0619 21.624 20.4056 18.9684 17.75 16.3115C19.0375 14.7453 19.8269 12.7784 19.9712 10.7559C20.1225 8.78588 19.675 6.77463 18.6906 5.06088C17.5662 3.08214 15.7487 1.50714 13.6256 0.68401ZM10.4262 2.01276C12.7381 2.11776 14.9675 3.29651 16.3625 5.14151C17.4887 6.60526 18.0725 8.46964 17.9931 10.314C17.9313 12.129 17.2231 13.9121 16.0219 15.274C14.9019 16.5571 13.3606 17.4671 11.6931 17.8196C9.84937 18.2178 7.865 17.9484 6.20563 17.0478C4.66875 16.2259 3.41875 14.8846 2.70625 13.294C1.89813 11.5109 1.78312 9.42901 2.3775 7.56463C2.93813 5.78338 4.15063 4.21839 5.73313 3.22776C7.12 2.34589 8.78687 1.92339 10.4262 2.01276Z" fill="white" fill-opacity="0.5"/>
</svg>
