<svg width="32" height="37" viewBox="0 0 32 37" fill="none" xmlns="http://www.w3.org/2000/svg">
<path d="M12.95 2.34141C14.1929 2.55098 15.0357 3.74336 14.8286 5.00078L14.1286 9.25H20.9214L21.7429 4.24199C21.95 2.98457 23.1286 2.13184 24.3714 2.34141C25.6143 2.55098 26.4571 3.74336 26.25 5.00078L25.5571 9.25H29.7143C30.9786 9.25 32 10.2834 32 11.5625C32 12.8416 30.9786 13.875 29.7143 13.875H24.7929L23.2714 23.125H27.4286C28.6929 23.125 29.7143 24.1584 29.7143 25.4375C29.7143 26.7166 28.6929 27.75 27.4286 27.75H22.5071L21.6857 32.758C21.4786 34.0154 20.3 34.8682 19.0571 34.6586C17.8143 34.449 16.9714 33.2566 17.1786 31.9992L17.8786 27.7572H11.0786L10.2571 32.7652C10.05 34.0227 8.87143 34.8754 7.62857 34.6658C6.38572 34.4563 5.54286 33.2639 5.75 32.0064L6.44286 27.75H2.28571C1.02143 27.75 0 26.7166 0 25.4375C0 24.1584 1.02143 23.125 2.28571 23.125H7.20714L8.72857 13.875H4.57143C3.30714 13.875 2.28571 12.8416 2.28571 11.5625C2.28571 10.2834 3.30714 9.25 4.57143 9.25H9.49286L10.3143 4.24199C10.5214 2.98457 11.7 2.13184 12.9429 2.34141H12.95ZM13.3643 13.875L11.8429 23.125H18.6357L20.1571 13.875H13.3643Z" fill="url(#paint0_linear_0_338)"/>
<defs>
<linearGradient id="paint0_linear_0_338" x1="1.53996e-08" y1="25.8067" x2="32.1485" y2="25.118" gradientUnits="userSpaceOnUse">
<stop stop-color="#03F7FD"/>
<stop offset="1" stop-color="#7D23CB"/>
</linearGradient>
</defs>
</svg>
