<svg width="12" height="14" viewBox="0 0 12 14" fill="none" xmlns="http://www.w3.org/2000/svg">
<path d="M8.14286 3.5C8.14286 2.91984 7.91709 2.36344 7.51523 1.9532C7.11337 1.54297 6.56832 1.3125 6 1.3125C5.43168 1.3125 4.88663 1.54297 4.48477 1.9532C4.08291 2.36344 3.85714 2.91984 3.85714 3.5C3.85714 4.08016 4.08291 4.63656 4.48477 5.0468C4.88663 5.45703 5.43168 5.6875 6 5.6875C6.56832 5.6875 7.11337 5.45703 7.51523 5.0468C7.91709 4.63656 8.14286 4.08016 8.14286 3.5ZM2.57143 3.5C2.57143 2.57174 2.93265 1.6815 3.57563 1.02513C4.21862 0.368749 5.09069 0 6 0C6.90931 0 7.78138 0.368749 8.42437 1.02513C9.06735 1.6815 9.42857 2.57174 9.42857 3.5C9.42857 4.42826 9.06735 5.3185 8.42437 5.97487C7.78138 6.63125 6.90931 7 6 7C5.09069 7 4.21862 6.63125 3.57563 5.97487C2.93265 5.3185 2.57143 4.42826 2.57143 3.5ZM1.32054 12.6875H10.6795C10.4411 10.9566 8.98393 9.625 7.22411 9.625H4.77589C3.01607 9.625 1.55893 10.9566 1.32054 12.6875ZM0 13.1879C0 10.4945 2.1375 8.3125 4.77589 8.3125H7.22411C9.8625 8.3125 12 10.4945 12 13.1879C12 13.6363 11.6438 14 11.2045 14H0.795536C0.35625 14 0 13.6363 0 13.1879Z" fill="white" fill-opacity="0.5"/>
</svg>
