<svg width="19" height="26" viewBox="0 0 19 26" fill="none" xmlns="http://www.w3.org/2000/svg">
<path d="M16.9515 7.64768C17.57 7.01292 17.57 5.98206 16.9515 5.34729C16.333 4.71252 15.3286 4.71252 14.7101 5.34729L9.49997 10.6996L4.28486 5.35237C3.66637 4.7176 2.66195 4.7176 2.04346 5.35237C1.42497 5.98713 1.42497 7.01799 2.04346 7.65276L7.25856 13L2.04841 18.3524C1.42992 18.9871 1.42992 20.018 2.04841 20.6528C2.66689 21.2875 3.67132 21.2875 4.28981 20.6528L9.49997 15.3004L14.7151 20.6477C15.3336 21.2824 16.338 21.2824 16.9565 20.6477C17.575 20.0129 17.575 18.9821 16.9565 18.3473L11.7414 13L16.9515 7.64768Z" fill="#111111" fill-opacity="0.7"/>
</svg>
